<?xml version="1.0" encoding="UTF-8"?>
<svg id="Layer_1" xmlns="http://www.w3.org/2000/svg" xmlns:xlink="http://www.w3.org/1999/xlink" version="1.1" viewBox="0 0 400 150">
  <!-- Generator: Adobe Illustrator 29.8.5, SVG Export Plug-In . SVG Version: 2.1.1 Build 2)  -->
  <defs>
    <style>
      .st0 {
        fill: none;
      }

      .st1 {
        fill: #4ade80;
      }

      .st2 {
        fill: #4ade80;
      }

      .st3 {
        fill: #4ade80;
      }

      .st4 {
        fill: #4ade80;
      }

      .st5 {
        fill: #4ade80;
      }

      .st6 {
        fill: #4ade80;
      }

      .st7 {
        fill: #4ade80;
      }

      .st8 {
        fill: #4ade80;
      }

      .st9 {
        fill: #4ade80;
      }

      .st10 {
        fill: #4ade80;
      }

      .st11 {
        isolation: isolate;
      }

      .st12 {
        fill: #4ade80;
      }

      .st13 {
        clip-path: url(#clippath-17);
      }

      .st14 {
        clip-path: url(#clippath-19);
      }

      .st15 {
        clip-path: url(#clippath-11);
      }

      .st16 {
        clip-path: url(#clippath-16);
      }

      .st17 {
        clip-path: url(#clippath-18);
      }

      .st18 {
        clip-path: url(#clippath-10);
      }

      .st19 {
        clip-path: url(#clippath-15);
      }

      .st20 {
        clip-path: url(#clippath-13);
      }

      .st21 {
        clip-path: url(#clippath-14);
      }

      .st22 {
        clip-path: url(#clippath-12);
      }

      .st23 {
        clip-path: url(#clippath-31);
      }

      .st24 {
        clip-path: url(#clippath-32);
      }

      .st25 {
        clip-path: url(#clippath-33);
      }

      .st26 {
        clip-path: url(#clippath-34);
      }

      .st27 {
        clip-path: url(#clippath-35);
      }

      .st28 {
        clip-path: url(#clippath-30);
      }

      .st29 {
        clip-path: url(#clippath-36);
      }

      .st30 {
        clip-path: url(#clippath-37);
      }

      .st31 {
        clip-path: url(#clippath-27);
      }

      .st32 {
        clip-path: url(#clippath-29);
      }

      .st33 {
        clip-path: url(#clippath-26);
      }

      .st34 {
        clip-path: url(#clippath-28);
      }

      .st35 {
        clip-path: url(#clippath-20);
      }

      .st36 {
        clip-path: url(#clippath-21);
      }

      .st37 {
        clip-path: url(#clippath-22);
      }

      .st38 {
        clip-path: url(#clippath-23);
      }

      .st39 {
        clip-path: url(#clippath-24);
      }

      .st40 {
        clip-path: url(#clippath-25);
      }

      .st41 {
        clip-path: url(#clippath-1);
      }

      .st42 {
        clip-path: url(#clippath-3);
      }

      .st43 {
        clip-path: url(#clippath-4);
      }

      .st44 {
        clip-path: url(#clippath-2);
      }

      .st45 {
        clip-path: url(#clippath-7);
      }

      .st46 {
        clip-path: url(#clippath-6);
      }

      .st47 {
        clip-path: url(#clippath-9);
      }

      .st48 {
        clip-path: url(#clippath-8);
      }

      .st49 {
        clip-path: url(#clippath-5);
      }

      .st50 {
        fill: #4ade80;
      }

      .st51 {
        fill: #4ade80;
      }

      .st52 {
        fill: #4ade80;
      }

      .st53 {
        fill: #4ade80;
      }

      .st54 {
        fill: #4ade80;
      }

      .st55 {
        fill: #4ade80;
      }

      .st56 {
        fill: #4ade80;
      }

      .st57 {
        fill: #4ade80;
      }

      .st58 {
        fill: #4ade80;
      }

      .st59 {
        fill: #4ade80;
      }

      .st60 {
        fill: #4ade80;
      }

      .st61 {
        fill: #4ade80;
      }

      .st62 {
        fill: #4ade80;
      }

      .st63 {
        clip-path: url(#clippath);
      }

      .st64 {
        fill: #4ade80;
      }
    </style>
    <clipPath id="clippath">
      <path class="st0" d="M47.7,42.5h2.1c-1.7.1-3.1.1-4.5.1h-2.1c1.4,0,2.8,0,4.5-.1Z"/>
    </clipPath>
    <clipPath id="clippath-1">
      <path class="st0" d="M59.6,54.2h2.1c-3.4.6-6.6.8-9.8.8h-2.1c3.1,0,6.4-.3,9.8-.8Z"/>
    </clipPath>
    <clipPath id="clippath-2">
      <path class="st0" d="M75.6,64.7h2.1c-4.4,1.2-8.3,1.8-12.2,1.8h-2.1c3.9,0,7.8-.6,12.2-1.8Z"/>
    </clipPath>
    <clipPath id="clippath-3">
      <path class="st0" d="M93.2,72.7h2.1c-3.6,1.5-8.1,2.7-13.2,2.7h-2.1c5.1,0,9.6-1.2,13.2-2.7Z"/>
    </clipPath>
    <clipPath id="clippath-4">
      <path class="st0" d="M110.9,78.4h2.1c-3.4,2-8.7,2.9-14,2.9h-2.1c5.3,0,10.6-.9,14-2.9Z"/>
    </clipPath>
    <clipPath id="clippath-5">
      <path class="st0" d="M126.3,81.9h2.1c-3.5,2.9-9.1,4.3-14.2,4.3h-2.1c5.2,0,10.7-1.4,14.2-4.3Z"/>
    </clipPath>
    <clipPath id="clippath-6">
      <path class="st0" d="M140.4,84.2h2.1c-2.9,3.3-7.9,5.1-13.3,5.1h-2.1c5.4,0,10.5-1.8,13.3-5.1Z"/>
    </clipPath>
    <clipPath id="clippath-7">
      <path class="st0" d="M153,85.6h2.1c-1.1,1.7-4.7,5.8-12,5.8h-2.1c7.3,0,11-4.1,12-5.8Z"/>
    </clipPath>
    <clipPath id="clippath-8">
      <path class="st0" d="M165.2,84.8h2.1c-1.1,4.2-4.2,7.8-11.3,7.8h-2.1c7.1,0,10.3-3.6,11.3-7.8Z"/>
    </clipPath>
    <clipPath id="clippath-9">
      <path class="st0" d="M173.5,70.1h2.1c-3.3,2.5-6.2,7-8.3,14.8h-2.1c2.1-7.7,5.1-12.2,8.3-14.8Z"/>
    </clipPath>
    <clipPath id="clippath-10">
      <path class="st0" d="M182.4,93.8h2.1c1.1,2.5,2.4,5,3.8,7.3h-2.1c-1.4-2.3-2.6-4.8-3.8-7.3Z"/>
    </clipPath>
    <clipPath id="clippath-11">
      <path class="st0" d="M180.7,70.6h2.1c7.6,12.6-10.8,19.9-11.7,20.3h-2.1c1-.4,19.3-7.7,11.7-20.3Z"/>
    </clipPath>
    <clipPath id="clippath-12">
      <path class="st0" d="M167.9,30.3h2.1c-1.1,15.3,17.4,18.9,24.5,19.5h-2.1c-7.1-.6-25.6-4.2-24.5-19.5Z"/>
    </clipPath>
    <clipPath id="clippath-13">
      <path class="st0" d="M203.4,30.2h2.1c-6,3.9-14.7,7.9-25.9,9.2h-2.1c11.1-1.3,19.9-5.4,25.9-9.2Z"/>
    </clipPath>
    <clipPath id="clippath-14">
      <path class="st0" d="M225,70.6h2.1c-.8.5-15.6,9.6-3.8,22.1h-2.1c-11.8-12.5,3-21.6,3.8-22.1Z"/>
    </clipPath>
    <clipPath id="clippath-15">
      <path class="st0" d="M230.7,99.5h2.1c-5.3,11.3-13.6,22.7-26.3,32.1h-2.1c12.7-9.4,21-20.8,26.3-32.1Z"/>
    </clipPath>
    <clipPath id="clippath-16">
      <path class="st0" d="M222.8,93.6h2.1c2.1,2,5.8,4.4,7.9,5.9h-2.1c-2.1-1.4-5.8-3.9-7.9-5.9Z"/>
    </clipPath>
    <clipPath id="clippath-17">
      <path class="st0" d="M235.8,30.5h2.1c-.9,2.4-2.7,6.1-6.5,9h-2.1c3.8-2.9,5.6-6.6,6.5-9Z"/>
    </clipPath>
    <clipPath id="clippath-18">
      <path class="st0" d="M203.4,19h2.1c5.4,4.3,16.6,11.1,32.4,11.4h-2.1c-15.8-.3-26.9-7.1-32.4-11.4Z"/>
    </clipPath>
    <clipPath id="clippath-19">
      <path class="st0" d="M239.7,62.9h2.1c-.4.2-2.2.8-2.6.9h-2.1c.4-.2,2.2-.7,2.6-.9Z"/>
    </clipPath>
    <clipPath id="clippath-20">
      <path class="st0" d="M244.5,60.8h2.1c-.4.2-1.8.4-2.2.6h-2.1c.4-.2,1.8-.4,2.2-.6Z"/>
    </clipPath>
    <clipPath id="clippath-21">
      <path class="st0" d="M250,57.8h2.1c-.5.3-.9.6-1.4.8h-2.1c.5-.3.9-.5,1.4-.8Z"/>
    </clipPath>
    <clipPath id="clippath-22">
      <path class="st0" d="M252.9,92.5h2.1c-.7,0-1.4,0-2,0h-2.1c.6,0,1.3,0,2,0Z"/>
    </clipPath>
    <clipPath id="clippath-23">
      <path class="st0" d="M254.9,54.4h2.1c-.4.3-.9.7-1.3,1h-2.1c.4-.3.9-.6,1.3-1Z"/>
    </clipPath>
    <clipPath id="clippath-24">
      <path class="st0" d="M259.7,50.3h2.1c-.4.4-.7.7-1.1,1h-2.1c.4-.3.8-.7,1.1-1Z"/>
    </clipPath>
    <clipPath id="clippath-25">
      <path class="st0" d="M263.9,45.9h2.1c-.3.4-.6.7-.9,1h-2.1c.3-.3.6-.7.9-1Z"/>
    </clipPath>
    <clipPath id="clippath-26">
      <path class="st0" d="M266.5,91.2h2.1c-.9.1-1.8.2-2.7.2h-2.1c.8,0,1.7,0,2.7-.2Z"/>
    </clipPath>
    <clipPath id="clippath-27">
      <path class="st0" d="M267.5,41.3h2.1c-.3.4-.5.7-.8,1.1h-2.1c.3-.4.5-.7.8-1.1Z"/>
    </clipPath>
    <clipPath id="clippath-28">
      <path class="st0" d="M269.9,36.9h2.1c-.2.4-.4.7-.7,1.1h-2.1c.2-.4.4-.7.7-1.1Z"/>
    </clipPath>
    <clipPath id="clippath-29">
      <path class="st0" d="M281.7,89h2.1c-1.3.2-2.7.3-4,.3h-2.1c1.3,0,2.7-.1,4-.3Z"/>
    </clipPath>
    <clipPath id="clippath-30">
      <path class="st0" d="M298.7,85.5h2.1c-2.3.5-4.1.7-5.9.7h-2.1c1.8,0,3.6-.2,5.9-.7Z"/>
    </clipPath>
    <clipPath id="clippath-31">
      <path class="st0" d="M319,79.8h2.1c-3,.9-7,1.5-11.1,1.5h-2.1c4.1,0,8.1-.5,11.1-1.5Z"/>
    </clipPath>
    <clipPath id="clippath-32">
      <path class="st0" d="M337.2,73h2.1c-4.4,1.7-8.6,2.4-12.5,2.4h-2.1c3.9,0,8.1-.7,12.5-2.4Z"/>
    </clipPath>
    <clipPath id="clippath-33">
      <path class="st0" d="M340.5,71.6h2.1c-1.1.5-2.2,1-3.2,1.4h-2.1c1-.4,2.1-.9,3.2-1.4Z"/>
    </clipPath>
    <clipPath id="clippath-34">
      <path class="st0" d="M357.8,62.5h2.1c-5.1,2.8-10.7,4-16.4,4h-2.1c5.6,0,11.3-1.2,16.4-4Z"/>
    </clipPath>
    <clipPath id="clippath-35">
      <path class="st0" d="M360.9,60.6h2.1c-1.1.7-2.1,1.3-3,1.9h-2.1c1-.6,1.9-1.2,3-1.9Z"/>
    </clipPath>
    <clipPath id="clippath-36">
      <path class="st0" d="M377.3,47.5h2.1c-5.7,5.3-13.6,7.5-22.4,7.5h-2.1c8.8,0,16.7-2.3,22.4-7.5Z"/>
    </clipPath>
    <clipPath id="clippath-37">
      <path class="st0" d="M390.1,30.5h2.1c-4.9,9.1-16.8,12.2-28.4,12.2h-2.1c11.6,0,23.6-3.1,28.4-12.2Z"/>
    </clipPath>
  </defs>
  <g class="st11">
    <g class="st11">
      <g class="st63">
        <g class="st11">
          <path class="st62" d="M47.7,42.5h2.1c-1.7.1-3.1.1-4.5.1h-2.1c1.4,0,2.8,0,4.5-.1"/>
        </g>
      </g>
    </g>
    <g class="st11">
      <g class="st41">
        <g class="st11">
          <path class="st62" d="M59.6,54.2h2.1c-3.4.6-6.6.8-9.8.8h-2.1c3.1,0,6.4-.3,9.8-.8"/>
        </g>
      </g>
    </g>
    <g class="st11">
      <g class="st44">
        <g class="st11">
          <path class="st62" d="M75.6,64.7h2.1c-4.4,1.2-8.3,1.8-12.2,1.8h-2.1c3.9,0,7.8-.6,12.2-1.8"/>
        </g>
      </g>
    </g>
    <g class="st11">
      <g class="st42">
        <g class="st11">
          <path class="st62" d="M93.2,72.7h2.1c-3.6,1.5-8.1,2.7-13.2,2.7h-2.1c5.1,0,9.6-1.2,13.2-2.7"/>
        </g>
      </g>
    </g>
    <g class="st11">
      <g class="st43">
        <g class="st11">
          <path class="st62" d="M110.9,78.4h2.1c-3.4,2-8.7,2.9-14,2.9h-2.1c5.3,0,10.6-.9,14-2.9"/>
        </g>
      </g>
    </g>
    <g class="st11">
      <g class="st49">
        <g class="st11">
          <path class="st62" d="M126.3,81.9h2.1c-3.5,2.9-9.1,4.3-14.2,4.3h-2.1c5.2,0,10.7-1.4,14.2-4.3"/>
        </g>
      </g>
    </g>
    <polygon class="st58" points="14.7 30.5 16.8 30.5 134.4 30.5 132.3 30.5 14.7 30.5"/>
    <polygon class="st54" points="135.3 36.9 137.4 36.9 49.8 42.5 47.7 42.5 135.3 36.9"/>
    <polygon class="st54" points="138.2 41.3 140.2 41.3 61.7 54.2 59.6 54.2 138.2 41.3"/>
    <g class="st11">
      <g class="st46">
        <g class="st11">
          <path class="st62" d="M140.4,84.2h2.1c-2.9,3.3-7.9,5.1-13.3,5.1h-2.1c5.4,0,10.5-1.8,13.3-5.1"/>
        </g>
      </g>
    </g>
    <polygon class="st54" points="141.8 45.9 143.8 45.9 77.7 64.7 75.6 64.7 141.8 45.9"/>
    <polygon class="st54" points="145.9 50.3 148 50.3 95.3 72.7 93.2 72.7 145.9 50.3"/>
    <polygon class="st54" points="150.7 54.4 152.8 54.4 113 78.4 110.9 78.4 150.7 54.4"/>
    <g class="st11">
      <g class="st45">
        <g class="st11">
          <path class="st62" d="M153,85.6h2.1c-1.1,1.7-4.7,5.8-12,5.8h-2.1c7.3,0,11-4.1,12-5.8"/>
        </g>
      </g>
    </g>
    <polygon class="st54" points="155.7 57.8 157.8 57.8 128.4 81.9 126.3 81.9 155.7 57.8"/>
    <polygon class="st2" points="161.1 60.8 163.2 60.8 142.5 84.2 140.4 84.2 161.1 60.8"/>
    <g class="st11">
      <g class="st48">
        <g class="st11">
          <path class="st7" d="M165.2,84.8h2.1c-.1.5-.3,1-.5,1.5h-2.1c.2-.5.3-1,.5-1.5"/>
          <path class="st64" d="M164.7,86.3h2.1c-.2.5-.5,1.1-.8,1.5h-2.1c.3-.5.6-1,.8-1.5"/>
          <path class="st62" d="M163.9,87.8h2.1c-1.7,2.8-4.8,4.7-10.1,4.7h-2.1c5.3,0,8.4-2,10.1-4.7"/>
        </g>
      </g>
    </g>
    <polygon class="st60" points="166.9 63.3 168.9 63.3 155.1 85.6 153 85.6 166.9 63.3"/>
    <g class="st11">
      <g class="st47">
        <g class="st11">
          <path class="st62" d="M173.5,70.1h2.1c-1.5,1.2-3,2.8-4.3,5h-2.1c1.3-2.2,2.8-3.8,4.3-5"/>
          <path class="st64" d="M169.1,75.1h2.1c-.8,1.3-1.6,2.9-2.3,4.7h-2.1c.7-1.8,1.5-3.3,2.3-4.7"/>
          <path class="st7" d="M166.8,79.7h2.1c-.6,1.5-1.2,3.2-1.7,5.1h-2.1c.5-1.9,1.1-3.6,1.7-5.1"/>
        </g>
      </g>
    </g>
    <polygon class="st52" points="186.2 101.1 188.2 101.1 187.1 103.4 185 103.4 186.2 101.1"/>
    <g class="st11">
      <g class="st18">
        <g class="st11">
          <path class="st4" d="M182.4,93.8h2.1c1.1,2.5,2.4,5,3.8,7.3h-2.1c-1.4-2.3-2.6-4.8-3.8-7.3"/>
        </g>
      </g>
    </g>
    <g class="st11">
      <g class="st15">
        <g class="st11">
          <path class="st4" d="M180.7,70.6h2.1c.4.7.8,1.4,1,2.1h-2.1c-.3-.7-.6-1.4-1-2.1"/>
          <path class="st50" d="M181.7,72.7h2.1c.3.7.5,1.4.6,2.1h-2.1c-.1-.7-.3-1.4-.6-2.1"/>
          <path class="st5" d="M182.3,74.8h2.1c0,.5.1,1,.2,1.5h-2.1c0-.5,0-1-.2-1.5"/>
          <path class="st8" d="M182.5,76.3h2.1c0,.4,0,.9,0,1.3h-2.1c0-.4,0-.8,0-1.3"/>
          <path class="st59" d="M182.4,77.6h2.1c0,.4-.1.8-.2,1.2h-2.1c0-.4.2-.8.2-1.2"/>
          <path class="st7" d="M182.2,78.8h2.1c-.1.5-.3.9-.4,1.4h-2.1c.2-.4.3-.9.4-1.4"/>
          <path class="st64" d="M181.8,80.2h2.1c-.2.6-.5,1.2-.9,1.7h-2.1c.3-.5.6-1.1.9-1.7"/>
          <path class="st62" d="M180.9,81.9h2.1c-3.4,5.6-11.4,8.8-12,9h-2.1c.6-.2,8.6-3.4,12-9"/>
        </g>
      </g>
    </g>
    <g class="st11">
      <g class="st22">
        <g class="st11">
          <path class="st8" d="M167.9,30.3h2.1c0,.6,0,1.2,0,1.7h-2.1c0-.6,0-1.1,0-1.7"/>
          <path class="st5" d="M167.9,32h2.1c0,.8.1,1.6.2,2.3h-2.1c-.1-.7-.2-1.5-.2-2.3"/>
          <path class="st50" d="M168.1,34.3h2.1c.2,1,.4,1.9.8,2.7h-2.1c-.3-.9-.6-1.8-.8-2.7"/>
          <path class="st4" d="M168.9,37.1h2.1c1.1,2.7,2.9,4.8,5.2,6.5h-2.1c-2.2-1.7-4.1-3.8-5.2-6.5"/>
          <path class="st50" d="M174.1,43.6h2.1c1.3.9,2.6,1.8,4.1,2.4h-2.1c-1.4-.7-2.8-1.5-4.1-2.4"/>
          <path class="st5" d="M178.2,46h2.1c1.6.8,3.2,1.4,4.8,1.9h-2.1c-1.6-.5-3.2-1.1-4.8-1.9"/>
          <path class="st8" d="M182.9,47.9h2.1c2.1.6,4.1,1.1,5.9,1.4h-2.1c-1.8-.3-3.8-.7-5.9-1.4"/>
          <path class="st59" d="M188.9,49.3h2.1c1.3.2,2.6.4,3.5.5h-2.1c-1,0-2.2-.2-3.5-.5"/>
        </g>
      </g>
    </g>
    <polygon class="st3" points="196.1 71.2 198.2 71.2 201.2 118.7 199.2 118.7 196.1 71.2"/>
    <path class="st10" d="M182.4,93.8c1.1,2.5,2.4,5,3.8,7.3l-1.2,2.2,15.8,28.4c-12.7-9.4-21-20.8-26.3-32.1,2.1-1.4,5.8-3.9,7.9-5.8Z"/>
    <polygon class="st9" points="185 103.4 187.1 103.4 202.9 131.8 200.8 131.8 185 103.4"/>
    <g class="st11">
      <g class="st20">
        <g class="st11">
          <path class="st62" d="M203.4,30.2h2.1c-6,3.9-14.7,7.9-25.9,9.2h-2.1c11.1-1.3,19.9-5.4,25.9-9.2"/>
        </g>
      </g>
    </g>
    <polygon class="st58" points="192.4 49.7 194.5 49.7 216.2 49.7 214.1 49.7 192.4 49.7"/>
    <polygon class="st12" points="221.2 92.8 223.3 92.8 208.6 118.7 206.5 118.7 221.2 92.8"/>
    <g class="st11">
      <g class="st21">
        <g class="st11">
          <path class="st62" d="M225,70.6h2.1c-.4.2-4.2,2.6-6.5,6.4h-2.1c2.3-3.8,6.1-6.1,6.5-6.4"/>
          <path class="st64" d="M218.5,77h2.1c-.4.6-.7,1.3-1,2h-2.1c.3-.7.6-1.4,1-2"/>
          <path class="st7" d="M217.5,79h2.1c-.2.5-.4,1-.5,1.6h-2.1c.1-.5.3-1.1.5-1.6"/>
          <path class="st59" d="M217,80.6h2.1c-.1.5-.2.9-.2,1.4h-2.1c0-.5.1-.9.2-1.4"/>
          <path class="st8" d="M216.7,82h2.1c0,.5,0,.9,0,1.4h-2.1c0-.5,0-1,0-1.4"/>
          <path class="st5" d="M216.7,83.4h2.1c0,.5,0,1,.2,1.6h-2.1c-.1-.5-.2-1.1-.2-1.6"/>
          <path class="st50" d="M216.8,85h2.1c.1.7.3,1.4.6,2.2h-2.1c-.3-.8-.5-1.5-.6-2.2"/>
          <path class="st4" d="M217.5,87.2h2.1c.7,1.8,1.9,3.6,3.8,5.6h-2.1c-1.8-2-3-3.8-3.8-5.6"/>
        </g>
      </g>
    </g>
    <g class="st11">
      <g class="st19">
        <g class="st11">
          <path class="st64" d="M230.7,99.5h2.1c-1.3,2.7-2.8,5.5-4.4,8.2h-2.1c1.7-2.7,3.1-5.5,4.4-8.2"/>
          <path class="st62" d="M226.2,107.7h2.1c-5.2,8.5-12.3,16.8-21.9,23.9h-2.1c9.6-7.1,16.7-15.4,21.9-23.9"/>
        </g>
      </g>
    </g>
    <path class="st10" d="M222.8,93.6c2.1,2,5.8,4.4,7.9,5.9-5.3,11.3-13.6,22.7-26.3,32.1l15.8-28.4-1.2-2.2c1.4-2.3,2.6-4.8,3.8-7.3Z"/>
    <g class="st11">
      <g class="st16">
        <g class="st11">
          <path class="st4" d="M222.8,93.6h2.1c.7.7,1.6,1.4,2.6,2.1h-2.1c-1-.7-1.9-1.5-2.6-2.1"/>
          <path class="st50" d="M225.3,95.8h2.1c1.8,1.4,3.9,2.8,5.3,3.7h-2.1c-1.4-.9-3.5-2.3-5.3-3.7"/>
        </g>
      </g>
    </g>
    <g class="st11">
      <g class="st13">
        <g class="st11">
          <path class="st7" d="M235.8,30.5h2.1c0,.2-.1.3-.2.5h-2.1c0-.2.1-.3.2-.5"/>
          <path class="st64" d="M235.6,31h2.1c-.4.9-.9,2-1.6,3.2h-2.1c.7-1.2,1.2-2.3,1.6-3.2"/>
          <path class="st62" d="M234,34.2h2.1c-1.1,1.8-2.6,3.7-4.7,5.3h-2.1c2.1-1.6,3.6-3.5,4.7-5.3"/>
        </g>
      </g>
    </g>
    <g class="st11">
      <g class="st17">
        <g class="st11">
          <path class="st4" d="M203.4,19h2.1c.3.2.5.4.8.6h-2.1c-.3-.2-.6-.4-.8-.6"/>
          <path class="st50" d="M204.2,19.7h2.1c2.2,1.7,5.2,3.6,8.9,5.4h-2.1c-3.7-1.8-6.7-3.7-8.9-5.4"/>
          <path class="st5" d="M213.1,25.1h2.1c2.3,1.1,4.8,2.1,7.5,3h-2.1c-2.8-.9-5.3-1.9-7.5-3"/>
          <path class="st8" d="M220.6,28.1h2.1c2.2.7,4.6,1.3,7.1,1.7h-2.1c-2.5-.4-4.9-1-7.1-1.7"/>
          <path class="st59" d="M227.7,29.7h2.1c2.3.4,4.8.6,7.3.7h-2.1c-2.6,0-5-.3-7.3-.7"/>
          <path class="st7" d="M235.1,30.5h2.1c.2,0,.5,0,.7,0h-2.1c-.2,0-.5,0-.7,0"/>
        </g>
      </g>
    </g>
    <path class="st10" d="M203.4,19c5.4,4.3,16.6,11.1,32.4,11.4-.9,2.4-2.7,6.1-6.5,9-11.2-1.3-19.9-5.4-25.9-9.2-6,3.9-14.7,7.9-25.9,9.2-3.8-2.9-5.6-6.6-6.5-9,15.8-.3,26.9-7.1,32.4-11.4Z"/>
    <polygon class="st56" points="232.7 71.3 234.8 71.3 238.3 90.9 236.2 90.9 232.7 71.3"/>
    <g class="st11">
      <g class="st14">
        <g class="st11">
          <path class="st62" d="M239.7,62.9h2.1c-.4.2-2.2.8-2.6.9h-2.1c.4-.2,2.2-.7,2.6-.9"/>
        </g>
      </g>
    </g>
    <g class="st11">
      <g class="st35">
        <g class="st11">
          <path class="st62" d="M244.5,60.8h2.1c-.4.2-1.8.4-2.2.6h-2.1c.4-.2,1.8-.4,2.2-.6"/>
        </g>
      </g>
    </g>
    <g class="st11">
      <g class="st36">
        <g class="st11">
          <path class="st62" d="M250,57.8h2.1c-.5.3-.9.6-1.4.8h-2.1c.5-.3.9-.5,1.4-.8"/>
        </g>
      </g>
    </g>
    <polygon class="st9" points="237.1 63.8 239.2 63.8 255 92.5 252.9 92.5 237.1 63.8"/>
    <g class="st11">
      <g class="st37">
        <g class="st11">
          <path class="st62" d="M252.9,92.5h2.1c-.7,0-1.4,0-2,0h-2.1c.6,0,1.3,0,2,0"/>
        </g>
      </g>
    </g>
    <g class="st11">
      <g class="st38">
        <g class="st11">
          <path class="st62" d="M254.9,54.4h2.1c-.4.3-.9.7-1.3,1h-2.1c.4-.3.9-.6,1.3-1"/>
        </g>
      </g>
    </g>
    <g class="st11">
      <g class="st39">
        <g class="st11">
          <path class="st62" d="M259.7,50.3h2.1c-.4.4-.7.7-1.1,1h-2.1c.4-.3.8-.7,1.1-1"/>
        </g>
      </g>
    </g>
    <g class="st11">
      <g class="st40">
        <g class="st11">
          <path class="st62" d="M263.9,45.9h2.1c-.3.4-.6.7-.9,1h-2.1c.3-.3.6-.7.9-1"/>
        </g>
      </g>
    </g>
    <polygon class="st4" points="242.3 61.5 244.4 61.5 268.6 91.2 266.5 91.2 242.3 61.5"/>
    <g class="st11">
      <g class="st33">
        <g class="st11">
          <path class="st62" d="M266.5,91.2h2.1c-.9.1-1.8.2-2.7.2h-2.1c.8,0,1.7,0,2.7-.2"/>
        </g>
      </g>
    </g>
    <g class="st11">
      <g class="st31">
        <g class="st11">
          <path class="st62" d="M267.5,41.3h2.1c-.3.4-.5.7-.8,1.1h-2.1c.3-.4.5-.7.8-1.1"/>
        </g>
      </g>
    </g>
    <g class="st11">
      <g class="st34">
        <g class="st11">
          <path class="st64" d="M269.9,36.9h2.1c-.2.4-.4.7-.7,1.1h-2.1c.2-.4.4-.7.7-1.1"/>
        </g>
      </g>
    </g>
    <polygon class="st58" points="238.6 30.3 240.7 30.3 275 30.3 273 30.3 238.6 30.3"/>
    <g class="st11">
      <g class="st32">
        <g class="st11">
          <path class="st62" d="M281.7,89h2.1c-1.3.2-2.7.3-4,.3h-2.1c1.3,0,2.7-.1,4-.3"/>
        </g>
      </g>
    </g>
    <polygon class="st1" points="248.6 58.6 250.7 58.6 283.8 89 281.7 89 248.6 58.6"/>
    <g class="st11">
      <g class="st28">
        <g class="st11">
          <path class="st62" d="M298.7,85.5h2.1c-2.3.5-4.1.7-5.9.7h-2.1c1.8,0,3.6-.2,5.9-.7"/>
        </g>
      </g>
    </g>
    <polygon class="st61" points="253.6 55.3 255.7 55.3 300.8 85.5 298.7 85.5 253.6 55.3"/>
    <g class="st11">
      <g class="st23">
        <g class="st11">
          <path class="st62" d="M319,79.8h2.1c-3,.9-7,1.5-11.1,1.5h-2.1c4.1,0,8.1-.5,11.1-1.5"/>
        </g>
      </g>
    </g>
    <polygon class="st57" points="258.6 51.3 260.7 51.3 321.1 79.8 319 79.8 258.6 51.3"/>
    <g class="st11">
      <g class="st24">
        <g class="st11">
          <path class="st62" d="M337.2,73h2.1c-4.4,1.7-8.6,2.4-12.5,2.4h-2.1c3.9,0,8.1-.7,12.5-2.4"/>
        </g>
      </g>
    </g>
    <polygon class="st51" points="263 46.9 265.1 46.9 342.5 71.6 340.5 71.6 263 46.9"/>
    <g class="st11">
      <g class="st25">
        <g class="st11">
          <path class="st62" d="M340.5,71.6h2.1c-1.1.5-2.2,1-3.2,1.4h-2.1c1-.4,2.1-.9,3.2-1.4"/>
        </g>
      </g>
    </g>
    <g class="st11">
      <g class="st26">
        <g class="st11">
          <path class="st62" d="M357.8,62.5h2.1c-5.1,2.8-10.7,4-16.4,4h-2.1c5.6,0,11.3-1.2,16.4-4"/>
        </g>
      </g>
    </g>
    <polygon class="st6" points="266.7 42.4 268.8 42.4 362.9 60.6 360.9 60.6 266.7 42.4"/>
    <g class="st11">
      <g class="st27">
        <g class="st11">
          <path class="st62" d="M360.9,60.6h2.1c-1.1.7-2.1,1.3-3,1.9h-2.1c1-.6,1.9-1.2,3-1.9"/>
        </g>
      </g>
    </g>
    <polygon class="st53" points="269.3 38 271.4 38 379.4 47.5 377.3 47.5 269.3 38"/>
    <g class="st11">
      <g class="st29">
        <g class="st11">
          <path class="st62" d="M377.3,47.5h2.1c-5.7,5.3-13.6,7.5-22.4,7.5h-2.1c8.8,0,16.7-2.3,22.4-7.5"/>
        </g>
      </g>
    </g>
    <polygon class="st58" points="273 30.3 275 30.3 392.2 30.5 390.1 30.5 273 30.3"/>
    <path class="st10" d="M132.3,30.5l35.6-.2c-1.1,15.3,17.4,18.9,24.5,19.5h21.7c7.1-.6,25.5-4.2,24.5-19.5h34.3s117.1.2,117.1.2c-4.9,9.1-16.8,12.2-28.4,12.2s-2.8,0-4.2-.1l-87.5-5.7c-.2.4-.4.7-.7,1.1l108,9.6c-5.7,5.3-13.6,7.5-22.4,7.5s-6.4-.3-9.7-.8l-77.7-12.9c-.3.4-.5.7-.8,1.1l94.1,18.1c-1.1.7-2.1,1.3-3,1.9-5.1,2.8-10.7,4-16.4,4s-7.8-.6-11.5-1.5l-66-19c-.3.4-.6.7-.9,1l77.5,24.6c-1.1.5-2.2,1-3.2,1.4-4.4,1.7-8.6,2.4-12.5,2.4s-9.6-1.2-13.2-2.7l-51.8-22.4c-.4.4-.7.7-1.1,1l60.4,28.5c-3,.9-7,1.5-11.1,1.5s-10.6-.9-14-2.9l-39-24c-.4.3-.9.7-1.3,1l45,30.2c-2.3.5-4.1.7-5.9.7-5.2,0-10.7-1.4-14.2-4.3l-28.6-24.1c-.5.3-.9.6-1.4.8l33.1,30.3c-1.3.2-2.7.3-4,.3-5.4,0-10.5-1.8-13.3-5.1l-19.8-23.3c-.4.2-1.8.4-2.2.6l24.2,29.7c-.9.1-1.8.2-2.7.2-7.4,0-11-4.1-11.9-5.6l-12.2-22.8c-.4.2-2.2.8-2.6.9l15.8,28.7c-.7,0-1.4,0-2,0-7.1,0-10.3-3.6-11.3-7.8-1.8-6.6-4.2-10.9-6.9-13.5l3.5,19.6c-.9-.4-18.4-7.7-11.2-20.3-.8.5-15.6,9.6-3.8,22.1l-14.7,26,3.1-47.5h-13.5s3.1,47.5,3.1,47.5l-14.7-26c11.8-12.5-3-21.6-3.8-22.1,7.6,12.6-10.8,19.9-11.7,20.3l4.5-20.8c-3.3,2.5-6.2,7-8.3,14.8-1.1,4.2-4.2,7.8-11.3,7.8s-1.3,0-2,0l17.2-27.8c-.4-.1-1.7-1.2-2.2-1.3l-13.9,22.3c-1.1,1.7-4.7,5.8-12,5.8s-1.7,0-2.7-.2l25.1-29.7c-.4-.2-1.8-.4-2.2-.6l-20.7,23.3c-2.9,3.3-7.9,5.1-13.3,5.1s-2.7-.1-4-.3l34-30.3c-.5-.3-.9-.5-1.4-.8l-29.4,24.1c-3.5,2.9-9.1,4.3-14.2,4.3s-3.6-.2-5.2-.5l45.6-30.3c-.9-.3-1.3-.6-1.7-1l-39.8,24c-3.4,2-8.7,2.9-14,2.9s-8.1-.5-11.1-1.5l61.2-28.5c-.4-.3-.8-.7-1.1-1l-52.7,22.4c-3.6,1.5-8.1,2.7-13.2,2.7s-8.1-.7-12.5-2.4c-1-.4-2.1-.9-3.1-1.4l78.2-24.7c-.3-.3-.6-.7-.9-1l-66.2,18.8c-4.4,1.2-8.3,1.8-12.2,1.8-5.6,0-11.3-1.2-16.4-4-1-.6-1.9-1.2-2.8-1.8l94.8-18.3c-.3-.4-.5-.7-.8-1.1l-78.5,12.9c-3.4.6-6.6.8-9.8.8-8.8,0-16.7-2.3-22.4-7.5l108.5-9.6c-.2-.4-.4-.7-.7-1.1l-87.6,5.7c-1.7.1-3.1.1-4.5.1-11.6,0-23.6-3.1-28.4-12.2h117.6Z"/>
    <g class="st11">
      <g class="st30">
        <g class="st11">
          <path class="st64" d="M390.1,30.5h2.1c-.2.3-.3.6-.5.9h-2.1c.2-.3.4-.6.5-.9"/>
          <path class="st62" d="M389.6,31.4h2.1c-5.2,8.4-16.7,11.3-27.9,11.3h-2.1c11.2,0,22.8-2.8,27.9-11.3"/>
        </g>
      </g>
    </g>
  </g>
  <path class="st55" d="M358.1,42.7c.1,0,.2,0,.3,0,12.8.8,27.3-1.8,32.7-12.1h-117.6l.3-.2h-34.4c1.1,15.3-17.4,18.9-24.5,19.5h-21.8c-7.1-.6-25.6-4.2-24.5-19.5h-36c0-.1.4.2.4.2H15.3c5.4,10.2,19.9,12.8,32.7,12.1.1,0,.2,0,.3,0l87.7-5.7c.2.4.4.7.7,1.1l-108.6,9.6c7.7,7.1,19.5,8.8,32.2,6.7,0,0,0,0,0,0l78.6-12.9c.3.4.5.7.8,1.1l-95.1,18.1c0,0,.1,0,.2.1.9.6,1.9,1.2,2.8,1.8,8.6,4.7,18.9,4.8,27.9,2.4.2,0,.5-.1.7-.2l66.3-18.8c.3.4.6.7.9,1l-78.4,24.6s0,0,.1,0c1,.5,2.1.9,3.1,1.4,10.2,4,19.4,2.4,25.7-.3l52.8-22.4c.4.4.8.7,1.1,1l-61.3,28.5c6.9,2.1,19.2,2.2,25.1-1.5l39.9-24c.4.3.9.7,1.7,1l-46,30.2c-.2,0,0,.1.3.2,6.2,1.3,14.7.1,19.4-3.7,0,0,0,0,0,0l29.4-24.1c.5.3.9.6,1.4.8l-34,30.3c6.9,1.1,13.8-.6,17.4-4.8l20.7-23.3c.4.2,1.8.4,2.2.6l-25.1,29.7c9.2,1.2,13.6-3.8,14.7-5.5,0,0,0,0,0-.1l13.9-22.2c.4.2,1.7,1.2,2.2,1.4l-17.2,27.8c8.5.7,12.2-3.1,13.3-7.7,2.1-7.7,5.1-12.2,8.3-14.7l-4.6,20.8s19.3-7.7,11.8-20.3c0,0,15.6,9.6,3.8,22.1l14.7,26-3.1-47.5h13.6l-3.1,47.5,14.7-26c-11.9-12.5,3.8-22.1,3.8-22.1-7.2,12.6,11.2,20.3,11.2,20.3l-3.5-19.6c2.7,2.7,5.1,6.9,6.9,13.5,1.2,4.6,4.8,8.4,13.3,7.7l-15.9-28.7c.4-.2,2.2-.7,2.6-.9l12.1,22.7s0,0,0,.1c1.1,1.7,5.5,6.6,14.7,5.5l-24.2-29.7c.5-.2,1.8-.4,2.2-.6l19.9,23.3c3.6,4.1,10.5,5.9,17.4,4.8l-33.2-30.3c.5-.3.9-.5,1.4-.8l28.6,24.1s0,0,0,0c4.7,3.9,13.2,5.1,19.4,3.7.3,0,.5-.1.7-.2l-45.1-30.2c.4-.3.9-.6,1.3-1l39,24c6,3.6,18.2,3.6,25.1,1.5l-60.5-28.5c.4-.3.8-.7,1.1-1l51.9,22.4c6.3,2.7,15.5,4.3,25.7.3,1-.4,2.1-.9,3.1-1.4,0,0,0,0,.1,0l-77.6-24.6c.3-.3.6-.7.9-1l65.4,18.8c.2,0,.5.1.7.2,9,2.4,19.3,2.3,27.9-2.4,1-.6,1.9-1.2,2.8-1.8,0,0,.1,0,.2-.1l-94.3-18.1c.3-.4.5-.7.8-1.1l77.8,12.9s0,0,0,0c12.7,2.1,24.4.4,32.2-6.7l-108.2-9.6c.2-.4.4-.7.7-1.1l87.3,5.7Z"/>
  <path class="st55" d="M178.3,39.7c11.2-1.3,19.9-5.4,25.9-9.2,6,3.9,14.7,7.9,25.9,9.2,3.8-2.9,5.7-6.6,6.5-9-15.8-.3-27-7.2-32.4-11.5-5.5,4.3-16.6,11.1-32.4,11.5.9,2.4,2.7,6.1,6.5,9Z"/>
  <path class="st55" d="M187,101.3c-1.4-2.3-2.6-4.8-3.8-7.3-2.1,2-5.8,4.4-7.9,5.8,5.4,11.3,13.6,22.7,26.4,32.1l-15.8-28.4,1.2-2.2Z"/>
  <path class="st55" d="M219.8,101.2l1.2,2.2-15.8,28.4c12.7-9.4,21-20.8,26.4-32.1-2.1-1.4-5.8-3.9-7.9-5.8-1.1,2.5-2.4,5-3.8,7.3Z"/>
  <path class="st55" d="M203.6,111.1c.8-.1,1.6-.2,2.4-.4v-2.3c-.8.1-1.6.3-2.4.4-.8-.1-1.6-.3-2.4-.4v2.3c.8.1,1.6.3,2.4.4"/>
  <path class="st55" d="M203.6,86.7c1.3-.1,2.6-.3,3.9-.4v-2.7c-1.3.2-2.6.3-3.9.5-1.3-.2-2.6-.3-3.9-.5v2.7c1.3.1,2.6.3,3.9.4"/>
  <path class="st55" d="M203.6,95.5c1.2-.1,2.3-.2,3.4-.4v-2.3c-1.1.1-2.2.3-3.4.4-1.2-.1-2.3-.3-3.4-.4v2.3c1.1.1,2.2.3,3.4.4"/>
  <path class="st55" d="M203.6,103.5c1-.1,2-.2,3-.4v-2.3c-1,.1-2,.3-3,.4-1-.1-2-.3-3-.4v2.3c1,.1,2,.3,3,.4"/>
</svg>